<?xml version="1.0" encoding="utf-8"?>
<!-- Generator: Adobe Illustrator 26.2.1, SVG Export Plug-In . SVG Version: 6.00 Build 0)  -->
<svg version="1.1" id="Layer_1" xmlns="http://www.w3.org/2000/svg" xmlns:xlink="http://www.w3.org/1999/xlink" x="0px" y="0px"
	 viewBox="0 0 1224 469.7" style="enable-background:new 0 0 1224 469.7;" xml:space="preserve">
<style type="text/css">
	.st0{fill:#FFFFFF;}
</style>
<path class="st0" d="M725,378.3c-10.3,16.3-30.9,31.5-60.9,31.5c-41.1,0-72.4-30.9-72.4-71.5s30.7-72,72.4-72c37.2,0,59,24.4,65,45
	c0,0,4.2,11.8,4.2,24.3c0,8-1,15.7-1,15.7H632.2l-3,0c3.8,16.8,17.6,26.7,35.6,26.7c17.9,0,27.1-7.5,32.3-18.3L725,378.3z
	 M632.9,325.3h65.3c-4-15-15.4-27.1-33.3-27.1c-20.4,0-30.6,11.7-35,27.1H632.9z"/>
<path class="st0" d="M128.6,138.3c0-21.9-14.9-38.1-35.3-38.1c-21.4,0-35.8,15.7-35.8,38.1s14.4,37.9,35.8,37.9
	C113.7,176.2,128.6,160.3,128.6,138.3z M167.1,138.3c0,41-28.8,72.1-68.5,72.1c-17.8,0-32.2-6.5-42.4-17.8V207H20.3V16.1H59v65.3
	c10.2-9.7,24.1-15.2,40.6-15.2C139.3,66.2,167.1,97,167.1,138.3z"/>
<path class="st0" d="M175.4,69.4h38.7V207h-37.7c-0.6,0-1.1-0.5-1.1-1.1V69.4z"/>
<path class="st0" d="M332.4,136.5c0-20.9-14.4-36.3-35.1-36.3c-20.1,0-35.1,15.9-35.1,36.3s14.9,36.3,34.8,36.3
	C318,172.8,332.4,157.1,332.4,136.5z M370.6,69.4v116.7c0,42-27.7,71-75.6,71c-38.5,0-60.2-16.5-69.3-40.5l33-12.8
	c5.8,14.4,19.4,20.9,36.6,20.9c24.9,0,39.5-13.8,39.5-35V184c-9.9,11.5-24.3,18.3-42.6,18.3c-39.8,0-68.3-30-68.3-67.6
	c0-37.6,28.8-68.4,68.3-68.4c18.3,0,32.7,6.8,42.6,18.3V69.3L370.6,69.4L370.6,69.4z"/>
<path class="st0" d="M248.7,338c0-21.9-14.9-38.1-35.3-38.1c-21.4,0-35.8,15.7-35.8,38.1c0,22.5,14.4,37.9,35.8,37.9
	C233.8,375.9,248.7,360,248.7,338z M287.1,338c0,41-28.8,72.1-68.5,72.1c-16.2,0-29.6-5.2-39.5-14.9v58.2h-37.7
	c-0.6,0-1.1-0.5-1.1-1.1V269.1h35.8v15.1c10.5-11.7,25.4-18.3,43.4-18.3C259.4,266,287.1,296.8,287.1,338z"/>
<path class="st0" d="M405.7,338c0-22.5-14.4-38.1-35.6-38.1c-20.7,0-35.6,16.2-35.6,38.1c0,21.9,14.9,37.9,35.6,37.9
	C391.3,375.9,405.7,360.5,405.7,338z M442.8,269.1v137.6H408c-0.6,0-1.1-0.5-1.1-1.1v-14.1c-9.9,11.7-24.3,18.5-42.4,18.5
	c-39.8,0-68.5-31.1-68.5-72.1c0-41.3,28.8-69.7,68.5-69.7c18.1,0,32.4,6.3,42.4,17.5v-16.7L442.8,269.1L442.8,269.1z"/>
<path class="st0" d="M589.6,373.3c-9,18.1-30.8,36.9-64.1,36.9c-41.3,0-72.7-31.1-72.7-71.8s30.9-72.3,72.7-72.3
	c32.6,0,54.3,18.7,63.3,37.1L556,320.6c-4.8-12.1-15.1-20.1-29.7-20.1c-19.4,0-34.5,14.6-34.5,37.6c0,23,15.2,37.6,34.5,37.6
	c14.8,0,25.6-8,30.5-19.8L589.6,373.3z"/>
<path class="st0" d="M805.4,321.9c-14.1-3.9-26.3-7.2-26.3-16.3c0-7.5,5.8-11.7,16.4-11.7c10.6,0,17.8,4.8,21.4,14.2l0.2,0.6
	l32.5-12.4l-0.2-0.5c-5.8-19.1-25.6-30.5-53.2-30.5c-34.1,0-55.3,16.1-55.3,42.1c0,27.7,25.7,35.5,46.3,41.8
	c15.2,4.6,28.3,8.6,28.3,18.8c0,8.2-6.9,13-19,13c-15.4,0-25.6-6.6-29.5-19.2l-0.2-0.6l-32.5,12.4l0.2,0.5
	c7.9,23.5,29.5,36.4,60.7,36.4c35.9,0,58.2-17.3,58.2-45C853.4,335.1,826.8,327.8,805.4,321.9z"/>
<path class="st0" d="M994.3,320v86.7h-37.4c-0.6,0-1.1-0.5-1.1-1.1v-78.1c0-17.5-11.5-27.4-27.2-27.4c-15.4,0-27.5,11-27.7,25.1
	v81.5h-37.6c-0.6,0-1.1-0.5-1.1-1.1V215.8h38.7v64c9.4-8.4,23-14.1,39.5-14.1C973.3,265.7,994.3,287.9,994.3,320z"/>
<path class="st0" d="M1010.1,269.1h38.7v137.6h-37.6c-0.6,0-1.1-0.5-1.1-1.1V269.1z"/>
<path class="st0" d="M1174.1,338c0-21.9-14.9-38.1-35.3-38.1c-21.4,0-35.8,15.7-35.8,38.1c0,22.5,14.4,37.9,35.8,37.9
	C1159.2,375.9,1174.1,360,1174.1,338z M1212.6,338c0,41-28.8,72.1-68.5,72.1c-16.2,0-29.6-5.2-39.5-14.9v58.2h-37.7
	c-0.6,0-1.1-0.5-1.1-1.1V269.1h35.8v15.1c10.5-11.7,25.4-18.3,43.4-18.3C1184.8,266,1212.6,296.8,1212.6,338z"/>
<path class="st0" d="M82.5,321.9c-14.1-3.9-26.3-7.2-26.3-16.3c0-7.5,5.8-11.7,16.4-11.7c10.6,0,17.8,4.8,21.4,14.2l0.2,0.6
	l32.5-12.4l-0.2-0.5c-5.8-19.1-25.6-30.5-53.2-30.5c-34.1,0-55.3,16.1-55.3,42.1c0,27.7,25.7,35.5,46.3,41.8
	c15.2,4.6,28.3,8.6,28.3,18.8c0,8.2-6.9,13-19,13c-15.4,0-25.6-6.6-29.5-19.2l-0.2-0.6l-32.5,12.4l0.2,0.5
	c7.9,23.5,29.5,36.4,60.7,36.4c35.9,0,58.2-17.3,58.2-45C130.5,335.1,103.9,327.8,82.5,321.9z"/>
</svg>
